<?xml version="1.0" encoding="UTF-8"?>
<svg id="_0" xmlns="http://www.w3.org/2000/svg" viewBox="0 0 20 20">
	<style>
		path { fill: #000000; }
		@media (prefers-color-scheme: dark) {
		path { fill: #ffffff; }
		}
	</style>
	<path d="M10,0C4.48,0,0,4.48,0,10s4.48,10,10,10,10-4.48,10-10S15.52,0,10,0ZM10,2c1.1,0,2,1.79,2,4,0,1.86-.55,3.68-1.58,5.22-.04.05-.08.1-.14.14-.23.15-.54.09-.69-.14-1.03-1.55-1.58-3.36-1.58-5.22,0-2.21.9-4,2-4ZM5.44,14.96c-.89.28-1.85-.09-2.32-.89C.98,10.46,2,5.81,5.44,3.43c.05-.04.11-.06.18-.08.06-.01.13-.02.19,0s.13.03.18.07c.06.03.1.08.14.13.04.05.06.11.08.18,0,.04.01.07.01.11,0,.04,0,.07-.01.11-.15.67-.22,1.38-.22,2.09,0,1.98.53,3.93,1.52,5.65.55.96.22,2.18-.74,2.73-.04.03-.09.05-.14.07-.39.19-.79.34-1.21.47ZM12.97,17.43c-1.91.76-4.03.76-5.94,0-.12-.05-.22-.15-.28-.27-.11-.25.01-.55.27-.65.96-.4,1.85-.93,2.67-1.58.18-.14.44-.14.62,0,.81.64,1.71,1.18,2.67,1.58.12.05.22.15.27.28.1.26-.02.55-.28.65ZM16.89,14.07c-.47.8-1.44,1.17-2.32.89-.41-.13-.82-.29-1.21-.47-.05-.02-.09-.05-.14-.07-.96-.55-1.29-1.77-.74-2.73.99-1.72,1.51-3.67,1.52-5.65,0-.71-.07-1.41-.22-2.09,0-.04-.01-.07-.01-.11,0-.04,0-.07.01-.11.01-.06.04-.12.08-.18.04-.05.09-.1.14-.13.06-.03.12-.06.18-.07s.13,0,.19,0c.06.01.12.04.18.08,3.45,2.39,4.46,7.03,2.33,10.64Z" />
</svg>

